<?xml version="1.0" standalone="no"?>
<!DOCTYPE svg PUBLIC "-//W3C//DTD SVG 20010904//EN"
 "http://www.w3.org/TR/2001/REC-SVG-20010904/DTD/svg10.dtd">
<svg version="1.0" xmlns="http://www.w3.org/2000/svg"
 width="558.000000pt" height="558.000000pt" viewBox="0 0 558.000000 558.000000"
 preserveAspectRatio="xMidYMid meet">
<metadata>
Created by potrace 1.14, written by Peter Selinger 2001-2017
</metadata>
<g transform="translate(0.000000,558.000000) scale(0.100000,-0.100000)"
fill="#000000" stroke="none">
<path d="M780 2790 l0 -1870 455 0 455 0 0 1870 0 1870 -455 0 -455 0 0 -1870z"/>
<path d="M2360 2790 l0 -1870 455 0 455 0 0 775 0 775 570 0 570 0 0 345 0
345 -570 0 -570 0 0 405 0 405 760 0 760 0 0 345 0 345 -1215 0 -1215 0 0
-1870z"/>
</g>
</svg>
