<svg width="287" height="48" viewBox="0 0 287 48" fill="none" xmlns="http://www.w3.org/2000/svg">
<rect width="287" height="48" fill="white"/>
<path d="M268.579 13.68V16.96C269.993 14.6133 272.246 13.44 275.339 13.44C277.899 13.44 279.966 14.2933 281.539 16C283.139 17.7067 283.939 20.0267 283.939 22.96V36H277.139V23.88C277.139 22.44 276.753 21.3333 275.979 20.56C275.233 19.76 274.193 19.36 272.859 19.36C271.526 19.36 270.473 19.76 269.699 20.56C268.953 21.3333 268.579 22.44 268.579 23.88V36H261.739V13.68H268.579Z" fill="#222F3E"/>
<path d="M248.21 28.92C249.196 27.96 249.69 26.6 249.69 24.84C249.69 23.08 249.196 21.7333 248.21 20.8C247.223 19.84 246.09 19.36 244.81 19.36C243.53 19.36 242.396 19.84 241.41 20.8C240.423 21.76 239.93 23.12 239.93 24.88C239.93 26.64 240.423 28 241.41 28.96C242.396 29.8933 243.53 30.36 244.81 30.36C246.09 30.36 247.223 29.88 248.21 28.92ZM235.93 33.08C233.956 30.9467 232.97 28.2133 232.97 24.88C232.97 21.5467 233.956 18.8133 235.93 16.68C237.903 14.52 240.303 13.44 243.13 13.44C245.983 13.44 248.17 14.4933 249.69 16.6V13.68H256.53V36H249.69V32.76C248.036 35.1067 245.823 36.28 243.05 36.28C240.276 36.28 237.903 35.2133 235.93 33.08Z" fill="#222F3E"/>
<path d="M198.89 13.68V16.96C200.303 14.6133 202.556 13.44 205.65 13.44C207.303 13.44 208.77 13.8133 210.05 14.56C211.356 15.3067 212.37 16.3733 213.09 17.76C213.916 16.4533 214.983 15.4133 216.29 14.64C217.623 13.84 219.103 13.44 220.73 13.44C223.45 13.44 225.61 14.28 227.21 15.96C228.81 17.64 229.61 19.9733 229.61 22.96V36H222.81V23.88C222.81 22.44 222.423 21.3333 221.65 20.56C220.903 19.76 219.863 19.36 218.53 19.36C217.196 19.36 216.143 19.76 215.37 20.56C214.623 21.3333 214.25 22.44 214.25 23.88V36H207.45V23.88C207.45 22.44 207.063 21.3333 206.29 20.56C205.543 19.76 204.503 19.36 203.17 19.36C201.836 19.36 200.783 19.76 200.01 20.56C199.263 21.3333 198.89 22.44 198.89 23.88V36H192.05V13.68H198.89Z" fill="#222F3E"/>
<path d="M178.52 28.92C179.507 27.96 180 26.6 180 24.84C180 23.08 179.507 21.7334 178.52 20.8C177.534 19.84 176.4 19.36 175.12 19.36C173.84 19.36 172.707 19.84 171.72 20.8C170.734 21.76 170.24 23.12 170.24 24.88C170.24 26.64 170.734 28 171.72 28.96C172.707 29.8934 173.84 30.36 175.12 30.36C176.4 30.36 177.534 29.88 178.52 28.92ZM166.24 33.08C164.267 30.9467 163.28 28.2134 163.28 24.88C163.28 21.5467 164.267 18.8134 166.24 16.68C168.214 14.52 170.614 13.44 173.44 13.44C176.294 13.44 178.48 14.4934 180 16.6V6.40002H186.84V36H180V32.76C178.347 35.1067 176.134 36.28 173.36 36.28C170.587 36.28 168.214 35.2134 166.24 33.08Z" fill="#222F3E"/>
<path d="M155.608 13.68V17.84C157.208 14.9067 159.341 13.44 162.008 13.44V20.4H160.328C158.754 20.4 157.568 20.7733 156.768 21.52C155.994 22.2667 155.608 23.5733 155.608 25.44V36H148.768V13.68H155.608Z" fill="#222F3E"/>
<path d="M133.773 36.28C130.52 36.28 127.853 35.24 125.773 33.16C123.693 31.0533 122.653 28.2667 122.653 24.8C122.653 21.3333 123.68 18.5733 125.733 16.52C127.813 14.4667 130.493 13.44 133.773 13.44C137.053 13.44 139.773 14.4533 141.933 16.48C144.093 18.5067 145.173 21.32 145.173 24.92C145.173 25.6933 145.12 26.4133 145.013 27.08H129.653C129.787 28.0667 130.227 28.88 130.973 29.52C131.72 30.1333 132.52 30.44 133.373 30.44C134.253 30.44 134.907 30.36 135.333 30.2C135.76 30.0133 136.067 29.84 136.253 29.68C136.467 29.4933 136.733 29.2 137.053 28.8H144.453C143.813 31.04 142.533 32.8533 140.613 34.24C138.693 35.6 136.413 36.28 133.773 36.28ZM138.053 22.8C137.947 21.76 137.493 20.92 136.693 20.28C135.893 19.6133 134.947 19.28 133.853 19.28C132.76 19.28 131.84 19.6133 131.093 20.28C130.347 20.92 129.88 21.76 129.693 22.8H138.053Z" fill="#222F3E"/>
<path d="M102.086 36V7.92004H120.366V13.12H108.926V19.16H117.486V24.36H108.926V36H102.086Z" fill="#222F3E"/>
<path d="M77.364 28.92C78.3507 27.96 78.844 26.6 78.844 24.84C78.844 23.08 78.3507 21.7333 77.364 20.8C76.3774 19.84 75.244 19.36 73.964 19.36C72.684 19.36 71.5507 19.84 70.564 20.8C69.5774 21.76 69.084 23.12 69.084 24.88C69.084 26.64 69.5774 28 70.564 28.96C71.5507 29.8933 72.684 30.36 73.964 30.36C75.244 30.36 76.3774 29.88 77.364 28.92ZM65.084 33.08C63.1107 30.9467 62.124 28.2133 62.124 24.88C62.124 21.5467 63.1107 18.8133 65.084 16.68C67.0574 14.52 69.4574 13.44 72.284 13.44C75.1374 13.44 77.324 14.4933 78.844 16.6V13.68H85.684V36H78.844V32.76C77.1907 35.1067 74.9774 36.28 72.204 36.28C69.4307 36.28 67.0574 35.2133 65.084 33.08Z" fill="#222F3E"/>
<path d="M36.6846 13.6801H43.9646L49.0446 30.2801L54.1246 13.6801H61.4046L53.4846 36.0001H44.6046L36.6846 13.6801Z" fill="#222F3E"/>
<path d="M24.5311 36.28C21.2778 36.28 18.6111 35.24 16.5311 33.16C14.4511 31.0533 13.4111 28.2667 13.4111 24.8C13.4111 21.3333 14.4378 18.5733 16.4911 16.52C18.5711 14.4667 21.2511 13.44 24.5311 13.44C27.8111 13.44 30.5311 14.4533 32.6911 16.48C34.8511 18.5067 35.9311 21.32 35.9311 24.92C35.9311 25.6933 35.8778 26.4133 35.7711 27.08H20.4111C20.5445 28.0667 20.9845 28.88 21.7311 29.52C22.4778 30.1333 23.2778 30.44 24.1311 30.44C25.0111 30.44 25.6645 30.36 26.0911 30.2C26.5178 30.0133 26.8245 29.84 27.0111 29.68C27.2245 29.4933 27.4911 29.2 27.8111 28.8H35.2111C34.5711 31.04 33.2911 32.8533 31.3711 34.24C29.4511 35.6 27.1711 36.28 24.5311 36.28ZM28.8111 22.8C28.7045 21.76 28.2511 20.92 27.4511 20.28C26.6511 19.6133 25.7045 19.28 24.6111 19.28C23.5178 19.28 22.5978 19.6133 21.8511 20.28C21.1045 20.92 20.6378 21.76 20.4511 22.8H28.8111Z" fill="#222F3E"/>
<path d="M3 36V7.92004H9.84V36H3Z" fill="#222F3E"/>
</svg>
